<svg width="116" height="31" viewBox="0 0 116 31" fill="none" xmlns="http://www.w3.org/2000/svg">
<path d="M16.9375 14.6562C16.3125 12.5312 14.5938 11.2188 12.125 11.2188C8.625 11.2188 6.25 13.9062 6.25 18.6562C6.25 23.4375 8.5625 26.1562 12.1562 26.1562C15.3906 26.1562 17.3125 24.3281 17.375 21.4688H12.4688V17.9375H21.9062V20.75C21.9062 26.6875 17.8438 30.3125 12.125 30.3125C5.78125 30.3125 1.46875 25.875 1.46875 18.7188C1.46875 11.375 6.0625 7.0625 12.0312 7.0625C17.125 7.0625 21.0625 10.1875 21.6875 14.6562H16.9375ZM34.2175 30.3438C29.03 30.3438 25.8425 26.9688 25.8425 21.5938C25.8425 16.3438 29.0613 12.8125 34.03 12.8125C38.4988 12.8125 41.9988 15.625 41.9988 21.4062V22.7188H30.405C30.405 25.2812 31.9363 26.875 34.3113 26.875C35.8738 26.875 36.9988 26.1875 37.4675 25.1562H41.8738C41.2175 28.2812 38.405 30.3438 34.2175 30.3438ZM30.405 19.8125H37.6238C37.6238 17.75 36.1863 16.2812 34.1238 16.2812C31.9988 16.2812 30.4831 17.8594 30.405 19.8125ZM50.81 20.1875V30H46.185V13.0312H50.5913V16H50.7788C51.56 14.0312 53.3725 12.8125 55.8725 12.8125C59.4038 12.8125 61.7475 15.2188 61.7163 19.1875V30H57.1225V20C57.1225 17.9062 55.9663 16.6562 54.06 16.6562C52.1225 16.6562 50.81 17.9375 50.81 20.1875ZM64.3713 11.25V7.375H82.9025V11.25H75.965V30H71.3088V11.25H64.3713ZM88.0888 30H83.0263L90.87 7.375H96.9013L104.714 30H99.6825L97.995 24.7812H89.8075L88.0888 30ZM90.995 21.125H96.8075L93.9638 12.4688H93.8075L90.995 21.125Z" fill="white"/>
</svg>
